HIERARCHY
ROOT Hips
{
    OFFSET 0.0 0.0 0.0
    CHANNELS 6 Xposition Yposition Zposition Zrotation Xrotation Yrotation
    JOINT LeftHipJoint
    {
        OFFSET 0.1 0.0 0.0
        CHANNELS 3 Zrotation Xrotation Yrotation
        JOINT LeftUpLeg
        {
            OFFSET 118.14592593432135 0.0 0.0
            CHANNELS 3 Zrotation Xrotation Yrotation
            JOINT LeftLeg
            {
                OFFSET 0.0 0.0 -404.89376045683093
                CHANNELS 3 Zrotation Xrotation Yrotation
                JOINT LeftFoot
                {
                    OFFSET 0.0 0.0 -391.3369836919401
                    CHANNELS 3 Zrotation Xrotation Yrotation
                    End Site
                    {
                        OFFSET 0.0 -0.1 0.0
                    }
                }
            }
        }
    }
    JOINT LowerBack
    {
        OFFSET 0.0 0.0 0.1
        CHANNELS 3 Zrotation Xrotation Yrotation
        JOINT Spine
        {
            OFFSET 0.0 0.0 218.45801725130036
            CHANNELS 3 Zrotation Xrotation Yrotation
            JOINT Spine1
            {
                OFFSET 0.0 0.0 250.3328642946054
                CHANNELS 3 Zrotation Xrotation Yrotation
                JOINT LeftShoulder
                {
                    OFFSET 0.1 0.0 0.0
                    CHANNELS 3 Zrotation Xrotation Yrotation
                    JOINT LeftArm
                    {
                        OFFSET 139.22761228869433 0.0 0.0
                        CHANNELS 3 Zrotation Xrotation Yrotation
                        JOINT LeftForeArm
                        {
                            OFFSET 255.77939051779518 0.0 0.0
                            CHANNELS 3 Zrotation Xrotation Yrotation
                            JOINT LeftHand
                            {
                                OFFSET 247.9839138689635 0.0 0.0
                                CHANNELS 3 Zrotation Xrotation Yrotation
                                End Site
                                {
                                    OFFSET 0.1 0.0 0.0
                                }
                            }
                        }
                    }
                }
                JOINT Neck
                {
                    OFFSET 0.0 0.0 0.1
                    CHANNELS 3 Zrotation Xrotation Yrotation
                    JOINT Neck1
                    {
                        OFFSET 0.0 0.0 106.63597981265166
                        CHANNELS 3 Zrotation Xrotation Yrotation
                        End Site
                        {
                            OFFSET 0.0 0.0 116.87542531516009
                        }
                    }
                }
                JOINT RightShoulder
                {
                    OFFSET -0.1 0.0 0.0
                    CHANNELS 3 Zrotation Xrotation Yrotation
                    JOINT RightArm
                    {
                        OFFSET -139.22761228869433 0.0 0.0
                        CHANNELS 3 Zrotation Xrotation Yrotation
                        JOINT RightForeArm
                        {
                            OFFSET -255.77939051779518 0.0 0.0
                            CHANNELS 3 Zrotation Xrotation Yrotation
                            JOINT RightHand
                            {
                                OFFSET -247.9839138689635 0.0 0.0
                                CHANNELS 3 Zrotation Xrotation Yrotation
                                End Site
                                {
                                    OFFSET -0.1 0.0 0.0
                                }
                            }
                        }
                    }
                }
            }
        }
    }
    JOINT RightHipJoint
    {
        OFFSET -0.1 0.0 0.0
        CHANNELS 3 Zrotation Xrotation Yrotation
        JOINT RightUpLeg
        {
            OFFSET -118.14592593432135 0.0 0.0
            CHANNELS 3 Zrotation Xrotation Yrotation
            JOINT RightLeg
            {
                OFFSET 0.0 0.0 -404.89376045683093
                CHANNELS 3 Zrotation Xrotation Yrotation
                JOINT RightFoot
                {
                    OFFSET 0.0 0.0 -391.3369836919401
                    CHANNELS 3 Zrotation Xrotation Yrotation
                    End Site
                    {
                        OFFSET 0.0 -0.1 0.0
                    }
                }
            }
        }
    }
}
MOTION
Frames: 7
Frame Time: 0.03333333333333333
0.0 0.0 801.7028809013551 28.4752245515754 1.5244170392932066 7.8629892434332085 0.0 0.0 4.2241741863187335e-16 -0.8085763027564931 -20.49563104256887 -4.664806431911398 -1.422907081348113 31.100806291799866 0.8557224396044169 3.1805546814635164e-15 -3.310429723537619e-32 -1.1927080055488186e-15 0.0 0.0 4.2241741863187335e-16 -0.1160183279868296 -3.067675391223698 -3.02881120105326 2.0406781671913143 -5.980293556042697e-16 -8.875709818355313e-17 0.0 0.0 -8.945310041616142e-16 -31.868270153672245 12.06597610969641 77.25024375312994 -29.010014408870163 -4.875419598086187e-15 1.2495745087461098e-14 0.0 0.0 1.987846675914698e-16 0.0 0.0 -8.945310041616142e-16 -12.358912396205403 -2.7698245087541293 -6.466782278488462 0.0 0.0 -8.945310041616142e-16 -1.7602692808116744 -29.96552162207505 -55.96127207603552 131.11075193516731 5.527768413550113e-15 -4.474753264153806e-15 -1.9878466759146977e-16 0.0 0.0 0.0 0.0 4.2241741863187335e-16 -0.4557623284191902 -11.88146405217686 -6.155394224684409 -1.693469006449422 23.213065260929675 -0.5606424931175282 0.0 0.0 -3.975693351829396e-16
0.0 0.0 801.7028809013551 28.594102515830016 1.5133408802980737 7.901251099062627 0.0 0.0 1.2424041724466862e-16 -0.7978347855677682 -20.493108482607646 -4.679646920806035 -1.4467766115900618 31.041564612321785 0.7828003586005645 0.0 0.0 7.951386703658792e-16 0.0 0.0 1.2424041724466862e-16 -0.11625917138810204 -3.1147422768063002 -3.0891556473379436 2.047302365865367 1.572266968945073e-15 -1.022175229862975e-15 0.0 0.0 -9.939233379573489e-17 -32.108529159412164 12.055294040420042 77.30666434244729 -28.859388618045184 -1.139316870026164e-15 4.4278182079228864e-15 0.0 0.0 -2.782985346280577e-15 0.0 0.0 -9.939233379573489e-17 -12.344551206898991 -2.6573724388117745 -6.414554692335776 0.0 0.0 -9.939233379573489e-17 -1.864114450875605 -30.000835543253114 -55.93200260790606 130.7526971982444 -2.8913283748966934e-15 -1.3251974608701678e-15 7.951386703658792e-16 0.0 0.0 0.0 0.0 1.2424041724466862e-16 -0.4478978027343013 -11.831749195183932 -6.230411849933801 -1.7287798764597881 23.097395059992248 -0.5035808504460877 0.0 0.0 3.975693351829396e-16
0.0 0.0 801.7028809013551 28.547045545586535 1.523656778172705 7.906855727418384 -6.896728590703373e-34 -3.975693351829396e-16 -1.987846675914698e-16 -0.7999650353253295 -20.414605318831413 -4.698313622912976 -1.44904407974588 31.036983403635 0.70760483610866 0.0 0.0 -7.951386703658792e-16 -6.896728590703373e-34 -3.975693351829396e-16 -1.987846675914698e-16 -0.11715957399255586 -3.117430598697486 -3.0266534985825393 2.098587668087372 -2.0603186501926256e-16 -3.938624010285065e-16 0.0 0.0 -9.93923337957349e-17 -31.76960956423582 12.141517326574446 77.2270389053355 -29.023719035239186 -1.0424002103487951e-16 6.749098141981032e-15 0.0 0.0 -2.3854160110976376e-15 0.0 0.0 -9.93923337957349e-17 -12.393665868418724 -2.5961244329045714 -6.452234809067992 0.0 0.0 -9.93923337957349e-17 -2.060732968879864 -30.074503056048925 -56.163698879036865 130.7179912449247 -6.9885365000280294e-15 3.792744138338074e-15 0.0 0.0 0.0 -6.896728590703373e-34 -3.975693351829396e-16 -1.987846675914698e-16 -0.44946650308874664 -11.793234463449517 -6.355882499336267 -1.7599549869014488 22.90703577423215 -0.3010012598950408 3.1805546814635164e-15 0.0 0.0
0.0 0.0 801.7028809013551 28.52583303397113 1.4998637285568923 7.921042893866898 0.0 0.0 -7.454425034680117e-17 -0.8141874805540468 -20.367512237413166 -4.718911834385816 -1.421691361118174 30.824561563619056 0.6785475138898318 0.0 0.0 -7.951386703658792e-16 0.0 0.0 -7.454425034680117e-17 -0.12091453959038514 -3.152990526171107 -3.072928638583363 2.0759488151657233 -5.764506452170241e-16 1.103939268417803e-15 0.0 0.0 0.0 -32.22293553812591 12.163595796225362 77.17795547132962 -29.055605000961922 -6.961948667987314e-15 7.847388353951336e-15 0.0 0.0 1.1927080055488188e-15 0.0 0.0 0.0 -12.414151151730467 -2.466686008840808 -6.418733713143678 0.0 0.0 0.0 -2.2456109739805976 -30.186031801339222 -56.051672435505786 130.40269329198605 5.336089696905127e-15 -1.1549069055774788e-14 0.0 0.0 0.0 0.0 0.0 -7.454425034680117e-17 -0.4569098390665696 -11.749042219982377 -6.357247094259299 -1.722804521208085 22.684019464883654 -0.2936536504899119 0.0 0.0 -3.9756933518293955e-16
0.0 0.0 801.7028809013551 28.622385236855877 1.484495630765238 7.908860833737962 0.0 0.0 -1.4908850069360235e-16 -0.8126002475384663 -20.28760875033118 -4.721093724066717 -1.4067834107463792 30.582329583878753 0.6735856348589949 0.0 0.0 3.975693351829396e-16 0.0 0.0 -1.4908850069360235e-16 -0.12032142424579484 -3.1301163587829053 -3.0482210927776747 2.0645449973582286 7.860565720432091e-16 -5.1120589892231e-16 0.0 0.0 9.93923337957349e-17 -32.34205235075902 12.235521159699436 77.14548163970689 -29.44995328843378 -2.1948989617618794e-15 2.0951118623688668e-15 0.0 0.0 -3.1805546814635168e-15 0.0 0.0 9.93923337957349e-17 -12.480522593077424 -2.451208308519279 -6.363049943770553 0.0 0.0 9.93923337957349e-17 -2.494058301645428 -30.302125833316257 -56.00768494345122 130.11917008833055 2.8839577825991326e-15 1.3411620297210133e-15 0.0 0.0 0.0 0.0 0.0 -1.4908850069360235e-16 -0.45320260281814734 -11.628456092263107 -6.391614450390302 -1.7233211110126265 22.541829518371788 -0.2774419435016028 1.3793457181406746e-33 -1.987846675914698e-16 7.951386703658792e-16
0.0 0.0 801.7028809013551 28.588573304114597 1.5154250445189048 7.898391551437862 0.0 0.0 1.7393658414253607e-16 -0.8096633618369524 -20.2801627795595 -4.703708091113426 -1.3957446563298892 30.48677364973992 0.6862221636879579 0.0 0.0 -3.975693351829396e-16 0.0 0.0 1.7393658414253607e-16 -0.12027717708888555 -3.1391777726795396 -3.0417683759120933 2.1341985837235415 3.863942940375803e-16 -6.036546383803117e-16 0.0 0.0 9.93923337957349e-17 -32.10266216721059 12.342023892057988 77.15001379752016 -29.65461951773983 2.5943853301378854e-15 -9.800437474082866e-15 0.0 0.0 -2.782985346280577e-15 0.0 0.0 9.93923337957349e-17 -12.294234061599571 -2.5317617788488826 -6.375022657568951 0.0 0.0 9.93923337957349e-17 -2.7531947374276147 -30.321874036891433 -55.99282814103525 129.77469056470883 0.0 0.0 0.0 0.0 0.0 0.0 0.0 1.7393658414253607e-16 -0.4498786765264663 -11.583116784419948 -6.426983495173555 -1.732222311250775 22.436135890384815 -0.2753996157406946 0.0 0.0 3.9756933518293955e-16
0.0 0.0 801.7028809013551 28.565728824943964 1.7387585976150761 7.905271999807473 0.0 0.0 -1.7393658414253607e-15 -0.7954401016738648 -20.420210890414996 -4.678258980706292 -1.3975446605649937 30.197901119251846 0.7224266409422659 0.0 0.0 0.0 0.0 0.0 -1.7393658414253607e-15 -0.11958036550375818 -3.200528076785513 -3.197632675203849 2.214413980269644 1.1523470513235686e-17 5.962426571894961e-16 0.0 0.0 0.0 -32.206655959977155 12.280736577937914 77.2454000578607 -29.64068256894032 -2.832476531772479e-15 -7.946333202555734e-15 0.0 0.0 3.1805546814635168e-15 0.0 0.0 0.0 -12.131516719189257 -2.6468540010988857 -6.208119452007798 0.0 0.0 0.0 -2.788169213616366 -30.522517843204028 -55.646178924252084 129.43034819522947 7.03071272907126e-15 -3.713977521794813e-15 0.0 0.0 0.0 0.0 0.0 -1.7393658414253607e-15 -0.4410125284734342 -11.643009448676404 -6.382641708474877 -1.7124471836647646 22.153209720902673 -0.3801046812237113 0.0 0.0 -3.975693351829396e-16
